<?xml version="1.0" encoding="utf-8"?>
<!-- Generator: Adobe Illustrator 20.1.0, SVG Export Plug-In . SVG Version: 6.00 Build 0)  -->
<svg  version="1.1" id="레이어_1" xmlns="http://www.w3.org/2000/svg" xmlns:xlink="http://www.w3.org/1999/xlink" x="0px"
	 y="0px" viewBox="0 0 380 380" style="enable-background:new 0 0 380 380;" xml:space="preserve">
<style type="text/css">
	.st0{fill:#FFFFFF;stroke:#353535;stroke-width:10;stroke-linecap:round;stroke-linejoin:round;stroke-miterlimit:10;}
	.st1{fill:none;stroke:#353535;stroke-width:6;stroke-linecap:round;stroke-linejoin:round;stroke-miterlimit:10;}
</style>
<g class="angry">
	<path class="st0" d="M190,311.7c39.8-19.9,78.8-45.1,107.5-79.7c20.9-25.1,33.8-56.4,31.7-89.9c-2.5-39.7-30.2-73.7-71.9-73.7
		c-35.3,0-61,24-67.3,63.3c-6.3-39.3-40-63.3-70.3-63.3c-34.7,0-66.3,34-68.9,73.7c-2.1,33.4,10.9,64.8,31.7,89.9
		C111.2,266.6,150.2,291.8,190,311.7z"/>
	<path class="st1" d="M171.7,232.3c10.2-9.7,26.4-9.7,36.7,0"/>
	<path class="st1" d="M208.8,194.4l41.3-7.7C250.1,186.7,230.3,233.1,208.8,194.4z"/>
	<path class="st1" d="M171.2,194.4l-41.3-7.7C129.9,186.7,149.7,233.1,171.2,194.4z"/>
	<line class="st1" x1="167.4" y1="180.6" x2="143.7" y2="170.2"/>
	<path class="st1" d="M210.3,181.9c0,0,3.6,4.7,9.1-0.8l17.2-15.2"/>
</g>
</svg>
