<?xml version="1.0" encoding="utf-8"?>
<!-- Generator: Adobe Illustrator 20.1.0, SVG Export Plug-In . SVG Version: 6.00 Build 0)  -->
<svg version="1.1" id="레이어_1" xmlns="http://www.w3.org/2000/svg" xmlns:xlink="http://www.w3.org/1999/xlink" x="0px"
	 y="0px" viewBox="0 0 380 320" style="enable-background:new 0 0 380 320;" xml:space="preserve">
<style type="text/css">
	.st0{fill:#FFFFFF;}
	.st1{fill:#353535;}
</style>
<g>
	<path class="st0" d="M152.7,207.3c4.9,0.2,9.8-3.5,14.6-11.1l-32.9-6.1C138.1,197,145.1,206.9,152.7,207.3z"/>
	<path class="st0" d="M227.3,207.3c7.6-0.4,14.6-10.3,18.3-17.2l-32.9,6.1C217.6,203.8,222.5,207.5,227.3,207.3z"/>
	<path class="st0" d="M326.7,142.3c-2.2-35.5-26.8-71.4-69.4-71.4c-33.9,0-58.8,23.4-64.8,61.2c-0.2,1.2-1.2,2.1-2.5,2.1
		c-1.2,0-2.3-0.9-2.5-2.1c-6.1-38.3-39.3-61.2-67.8-61.2c-33.5,0-63.9,32.7-66.4,71.4c-1.9,30.3,9.1,61.6,31.1,88.1
		c24.3,29.3,58.9,55,105.6,78.5c46.7-23.5,81.2-49.2,105.6-78.5C317.6,204,328.6,172.7,326.7,142.3z M208.8,179.9
		c1.1-0.8,2.6-0.6,3.5,0.4c0.1,0.1,0.8,0.9,1.8,0.9c1.3,0.1,2.6-1,3.6-1.9l0.1-0.1L235,164c1-0.9,2.6-0.8,3.5,0.2s0.8,2.6-0.2,3.5
		l-17.1,15.2c-2.2,2.2-4.6,3.3-6.9,3.3c-0.2,0-0.3,0-0.5,0c-3.3-0.2-5.2-2.6-5.4-2.8C207.5,182.3,207.7,180.8,208.8,179.9z
		 M141.4,169.2c0.6-1.3,2-1.8,3.3-1.3l23.7,10.4c1.3,0.6,1.8,2,1.3,3.3c-0.4,0.9-1.3,1.5-2.3,1.5c-0.3,0-0.7-0.1-1-0.2l-23.7-10.4
		C141.4,171.9,140.9,170.5,141.4,169.2z M153.1,212.3c-0.2,0-0.5,0-0.7,0c-14.4-0.8-24.4-23.6-24.8-24.6c-0.4-0.8-0.2-1.8,0.3-2.5
		c0.6-0.7,1.5-1.1,2.4-0.9l41.3,7.7c0.8,0.1,1.5,0.7,1.8,1.4s0.3,1.6-0.1,2.3C167.2,206.7,160.4,212.3,153.1,212.3z M210.2,234
		c-0.5,0.5-1.2,0.8-1.8,0.8s-1.2-0.2-1.7-0.7c-9.4-8.8-24-8.8-33.3,0c-1,1-2.6,0.9-3.5-0.1c-1-1-0.9-2.6,0.1-3.5
		c11.2-10.7,28.8-10.7,40.1,0C211.1,231.4,211.2,233,210.2,234z M252.4,187.7c-0.4,1-10.3,23.9-24.8,24.6c-0.2,0-0.5,0-0.7,0
		c-7.3,0-14.1-5.6-20.3-16.7c-0.4-0.7-0.4-1.6-0.1-2.3c0.3-0.7,1-1.2,1.8-1.4l41.3-7.7c0.9-0.2,1.8,0.2,2.4,0.9
		C252.6,185.9,252.8,186.8,252.4,187.7z"/>
	<path class="st1" d="M331.7,141.9c-2.8-44.1-34.1-76-74.4-76c-33.1,0-58.2,20.6-67.4,54.4c-4.5-14.4-12.9-27.2-24.4-36.9
		c-13.2-11.1-29.9-17.5-45.8-17.5c-36,0-68.7,34.8-71.4,76c-2,31.6,9.5,64.1,32.3,91.7c25,30.1,60.4,56.4,108.3,80.3
		c0.4,0.2,0.7,0.3,1.1,0.3s0.8-0.1,1.1-0.3c47.9-24,83.3-50.2,108.3-80.3C322.2,206.2,333.7,173.7,331.7,141.9z M190,308.9
		c-46.7-23.5-81.2-49.2-105.6-78.5c-22-26.5-33-57.8-31.1-88.1c2.5-38.7,32.9-71.4,66.4-71.4c28.5,0,61.7,22.9,67.8,61.2
		c0.2,1.2,1.2,2.1,2.5,2.1c1.2,0,2.3-0.9,2.5-2.1c6.1-37.7,30.9-61.2,64.8-61.2c42.6,0,67.2,35.9,69.4,71.4
		c1.9,30.4-9.1,61.7-31.1,88.1C271.2,259.7,236.7,285.4,190,308.9z"/>
	<path class="st1" d="M170,230.5c-1,1-1,2.5-0.1,3.5c1,1,2.5,1,3.5,0.1c9.3-8.8,23.9-8.8,33.3,0c0.5,0.5,1.1,0.7,1.7,0.7
		c0.7,0,1.3-0.3,1.8-0.8c0.9-1,0.9-2.6-0.1-3.5C198.8,219.8,181.2,219.8,170,230.5z"/>
	<path class="st1" d="M249.6,184.2l-41.3,7.7c-0.8,0.1-1.5,0.7-1.8,1.4s-0.3,1.6,0.1,2.3c6.2,11.1,13,16.7,20.3,16.7
		c0.2,0,0.5,0,0.7,0c14.4-0.8,24.4-23.6,24.8-24.6c0.4-0.8,0.2-1.8-0.3-2.5C251.5,184.4,250.5,184.1,249.6,184.2z M227.3,207.3
		c-4.9,0.2-9.8-3.5-14.6-11.1l32.9-6.1C241.9,197,234.9,206.9,227.3,207.3z"/>
	<path class="st1" d="M173.5,193.3c-0.3-0.7-1-1.2-1.8-1.4l-41.3-7.7c-0.9-0.2-1.8,0.2-2.4,0.9s-0.7,1.7-0.3,2.5
		c0.4,1,10.3,23.9,24.8,24.6c0.2,0,0.5,0,0.7,0c7.3,0,14.1-5.6,20.3-16.7C173.8,194.9,173.8,194.1,173.5,193.3z M152.7,207.3
		c-7.6-0.4-14.6-10.3-18.3-17.2l32.9,6.1C162.4,203.8,157.5,207.5,152.7,207.3z"/>
	<path class="st1" d="M142.7,172.5l23.7,10.4c0.3,0.1,0.7,0.2,1,0.2c1,0,1.9-0.6,2.3-1.5c0.6-1.3,0-2.7-1.3-3.3l-23.7-10.4
		c-1.3-0.6-2.7,0-3.3,1.3C140.9,170.5,141.4,171.9,142.7,172.5z"/>
	<path class="st1" d="M213.7,186.3c0.2,0,0.3,0,0.5,0c2.4,0,4.7-1.1,6.9-3.3l17.1-15.2c1-0.9,1.1-2.5,0.2-3.5s-2.5-1.1-3.5-0.2
		l-17.2,15.2l-0.1,0.1c-0.9,0.9-2.3,2-3.6,1.9c-1,0-1.8-0.9-1.8-0.9c-0.8-1.1-2.4-1.3-3.5-0.4c-1.1,0.8-1.3,2.4-0.5,3.5
		C208.5,183.7,210.4,186,213.7,186.3z"/>
</g>
</svg>
