<?xml version="1.0" encoding="utf-8"?>
<!-- Generator: Adobe Illustrator 20.1.0, SVG Export Plug-In . SVG Version: 6.00 Build 0)  -->
<svg version="1.1" id="레이어_1" xmlns="http://www.w3.org/2000/svg" xmlns:xlink="http://www.w3.org/1999/xlink" x="0px"
	 y="0px" viewBox="0 0 380 320" style="enable-background:new 0 0 380 320;" xml:space="preserve">
<style type="text/css">
	.st0{fill:#FFFFFF;}
	.st1{fill:#353535;}
</style>
<g>
	<path class="st0" d="M224.5,204.9c0,3,2.5,5.5,5.5,5.5s5.5-2.5,5.5-5.5v-13.8h-11V204.9z"/>
	<path class="st0" d="M144.5,204.9c0,3,2.5,5.5,5.5,5.5s5.5-2.5,5.5-5.5v-13.8h-11V204.9z"/>
	<path class="st0" d="M326.7,142.2c-2.2-35.5-26.8-71.4-69.4-71.4c-33.9,0-58.8,23.4-64.8,61.2c-0.2,1.2-1.2,2.1-2.5,2.1
		c-1.2,0-2.3-0.9-2.5-2.1c-6.1-38.3-39.3-61.2-67.8-61.2c-33.5,0-63.9,32.7-66.4,71.4c-1.9,30.3,9.1,61.6,31.1,88.1
		c24.3,29.3,58.9,55,105.6,78.5c46.7-23.5,81.2-49.2,105.6-78.5C317.6,203.9,328.6,172.6,326.7,142.2z M220.3,155.4H241
		c1.4,0,2.5,1.1,2.5,2.5s-1.1,2.5-2.5,2.5h-20.7c-1.4,0-2.5-1.1-2.5-2.5S218.9,155.4,220.3,155.4z M139,155.4h20.7
		c1.4,0,2.5,1.1,2.5,2.5s-1.1,2.5-2.5,2.5H139c-1.4,0-2.5-1.1-2.5-2.5S137.6,155.4,139,155.4z M166.8,191.1h-6.3v13.8
		c0,5.8-4.7,10.5-10.5,10.5s-10.5-4.7-10.5-10.5v-13.8h-6.3c-1.4,0-2.5-1.1-2.5-2.5s1.1-2.5,2.5-2.5h6.3h21h6.3
		c1.4,0,2.5,1.1,2.5,2.5S168.2,191.1,166.8,191.1z M208.3,234.8h-36.6c-1.4,0-2.5-1.1-2.5-2.5s1.1-2.5,2.5-2.5h36.6
		c1.4,0,2.5,1.1,2.5,2.5S209.7,234.8,208.3,234.8z M246.8,191.1h-6.3v13.8c0,5.8-4.7,10.5-10.5,10.5s-10.5-4.7-10.5-10.5v-13.8h-6.3
		c-1.4,0-2.5-1.1-2.5-2.5s1.1-2.5,2.5-2.5h6.3h21h6.3c1.4,0,2.5,1.1,2.5,2.5S248.2,191.1,246.8,191.1z"/>
	<path class="st1" d="M331.7,141.8c-2.8-44.1-34.1-76-74.4-76c-33.1,0-58.2,20.6-67.4,54.4c-4.5-14.4-12.9-27.2-24.4-36.9
		c-13.2-11.1-29.9-17.5-45.8-17.5c-36,0-68.7,34.8-71.4,76c-2,31.6,9.5,64.1,32.3,91.7c25,30.1,60.4,56.4,108.3,80.3
		c0.4,0.2,0.7,0.3,1.1,0.3s0.8-0.1,1.1-0.3c47.9-24,83.3-50.2,108.3-80.3C322.2,206.1,333.7,173.6,331.7,141.8z M190,308.8
		c-46.7-23.5-81.2-49.2-105.6-78.5c-22-26.5-33-57.8-31.1-88.1c2.5-38.7,32.9-71.4,66.4-71.4c28.5,0,61.7,22.9,67.8,61.2
		c0.2,1.2,1.2,2.1,2.5,2.1c1.2,0,2.3-0.9,2.5-2.1c6.1-37.7,30.9-61.2,64.8-61.2c42.6,0,67.2,35.9,69.4,71.4
		c1.9,30.4-9.1,61.7-31.1,88.1C271.2,259.6,236.7,285.3,190,308.8z"/>
	<path class="st1" d="M208.3,229.8h-36.6c-1.4,0-2.5,1.1-2.5,2.5s1.1,2.5,2.5,2.5h36.6c1.4,0,2.5-1.1,2.5-2.5
		S209.7,229.8,208.3,229.8z"/>
	<path class="st1" d="M166.8,186.1h-6.3h-21h-6.3c-1.4,0-2.5,1.1-2.5,2.5s1.1,2.5,2.5,2.5h6.3v13.8c0,5.8,4.7,10.5,10.5,10.5
		s10.5-4.7,10.5-10.5v-13.8h6.3c1.4,0,2.5-1.1,2.5-2.5S168.2,186.1,166.8,186.1z M155.5,204.9c0,3-2.5,5.5-5.5,5.5s-5.5-2.5-5.5-5.5
		v-13.8h11V204.9z"/>
	<path class="st1" d="M246.8,186.1h-6.3h-21h-6.3c-1.4,0-2.5,1.1-2.5,2.5s1.1,2.5,2.5,2.5h6.3v13.8c0,5.8,4.7,10.5,10.5,10.5
		s10.5-4.7,10.5-10.5v-13.8h6.3c1.4,0,2.5-1.1,2.5-2.5S248.2,186.1,246.8,186.1z M235.5,204.9c0,3-2.5,5.5-5.5,5.5s-5.5-2.5-5.5-5.5
		v-13.8h11V204.9z"/>
	<path class="st1" d="M139,160.4h20.7c1.4,0,2.5-1.1,2.5-2.5s-1.1-2.5-2.5-2.5H139c-1.4,0-2.5,1.1-2.5,2.5S137.6,160.4,139,160.4z"
		/>
	<path class="st1" d="M220.3,160.4H241c1.4,0,2.5-1.1,2.5-2.5s-1.1-2.5-2.5-2.5h-20.7c-1.4,0-2.5,1.1-2.5,2.5
		S218.9,160.4,220.3,160.4z"/>
</g>
</svg>
