<?xml version="1.0" encoding="utf-8"?>
<!-- Generator: Adobe Illustrator 20.1.0, SVG Export Plug-In . SVG Version: 6.00 Build 0)  -->
<svg version="1.1" id="레이어_1" xmlns="http://www.w3.org/2000/svg" xmlns:xlink="http://www.w3.org/1999/xlink" x="0px"
	 y="0px" viewBox="0 0 380 380" style="enable-background:new 0 0 380 380;" xml:space="preserve">
<style type="text/css">
	.st0{fill:#FFFFFF;stroke:#353535;stroke-width:10;stroke-linecap:round;stroke-linejoin:round;stroke-miterlimit:10;}
	.st1{fill:none;stroke:#353535;stroke-width:6;stroke-linecap:round;stroke-linejoin:round;stroke-miterlimit:10;}
	.st2{fill:#353535;stroke:#353535;stroke-width:6;stroke-linecap:round;stroke-linejoin:round;stroke-miterlimit:10;}
	.st3{fill:#FFFFFF;stroke:#353535;stroke-width:6;stroke-linecap:round;stroke-linejoin:round;stroke-miterlimit:10;}
	.st4{fill:none;stroke:#353535;stroke-width:3;stroke-linecap:round;stroke-linejoin:round;stroke-miterlimit:10;}
</style>
<g>
	<path class="st0" d="M190,311.6c39.8-19.9,78.8-45.1,107.5-79.7c20.9-25.1,33.8-56.4,31.7-89.9c-2.5-39.7-30.2-73.7-71.9-73.7
		c-35.3,0-61,24-67.3,63.3c-6.3-39.3-40-63.3-70.3-63.3c-34.7,0-66.3,34-68.9,73.7c-2.1,33.4,10.9,64.8,31.7,89.9
		C111.2,266.5,150.2,291.7,190,311.6z"/>
	<g>
		<line class="st1" x1="157.9" y1="157.2" x2="131.7" y2="165.2"/>
		<line class="st1" x1="222.1" y1="157.2" x2="248.3" y2="165.2"/>
	</g>
	<g>
		<path class="st1" d="M130.7,190c0,0,29.7,1.2,33.7,9.5c0,0-21.7-0.3-28,4.3"/>
		<path class="st1" d="M249.3,190c0,0-29.7,1.2-33.7,9.5c0,0,21.7-0.3,28,4.3"/>
	</g>
	<path class="st2" d="M181.3,231.6c-4.7-0.8-9.1-3.4-13.9-3.2c-1.2,0.1-2.4,0.3-3.3,0.9c-1.5,1-2.2,3-2.3,4.8
		c-0.1,3.8,2.2,7.4,5.5,9.2c3.3,1.8,7.4,1.8,10.9,0.5c2.7-1,5.1-2.8,8-3c1.9-0.1,3.7,0.4,5.6,0.8c4.4,1,9,1.5,13.5,1.3
		c3.7-0.2,7.7-0.9,10.4-3.5s3.4-7.5,0.6-9.9c-1.4-1.2-3.4-1.6-5.3-1.8c-5.3-0.5-11-0.2-16.2,1.3
		C190.2,230.5,186.5,232.5,181.3,231.6z"/>
	<path class="st3" d="M171.7,228.8c0,0-4.6,3.7-8.5,9.2c-7.8,11-8.3,22.5-2.1,25.9c8,4.4,13.7-0.8,18.3-16.9
		c1.2-4.2,5.9-12.2,8.8-15.8C184.2,232.4,175.2,229.4,171.7,228.8z"/>
	<path class="st4" d="M177.5,232.4c-4.1,4.6-8.2,9.7-9.3,15.8"/>
</g>
</svg>
