<?xml version="1.0" encoding="utf-8"?>
<!-- Generator: Adobe Illustrator 20.1.0, SVG Export Plug-In . SVG Version: 6.00 Build 0)  -->
<svg version="1.1" id="레이어_1" xmlns="http://www.w3.org/2000/svg" xmlns:xlink="http://www.w3.org/1999/xlink" x="0px"
	 y="0px" viewBox="0 0 380 320" style="enable-background:new 0 0 380 320;" xml:space="preserve">
<style type="text/css">
	.st0{fill:#FFFFFF;}
	.st1{fill:#353535;}
</style>
<g>
	<path class="st0" d="M326.7,142.2c-2.2-35.5-26.8-71.4-69.4-71.4c-33.9,0-58.8,23.4-64.8,61.2c-0.2,1.2-1.2,2.1-2.5,2.1
		c-1.2,0-2.3-0.9-2.5-2.1c-6.1-38.3-39.3-61.2-67.8-61.2c-33.5,0-63.9,32.7-66.4,71.4c-1.9,30.3,9.1,61.6,31.1,88.1
		c24.3,29.3,58.9,55,105.6,78.5c46.7-23.5,81.2-49.2,105.6-78.5C317.6,203.9,328.6,172.6,326.7,142.2z M219.7,156.5
		c0.4-1.3,1.8-2.1,3.1-1.7l26.2,8c1.3,0.4,2.1,1.8,1.7,3.1c-0.3,1.1-1.3,1.8-2.4,1.8c-0.2,0-0.5,0-0.7-0.1l-26.2-8
		C220,159.2,219.3,157.8,219.7,156.5z M131,162.8l26.2-8c1.3-0.4,2.7,0.3,3.1,1.7s-0.3,2.7-1.7,3.1l-26.2,8
		c-0.2,0.1-0.5,0.1-0.7,0.1c-1.1,0-2.1-0.7-2.4-1.8C128.9,164.6,129.6,163.2,131,162.8z M136.4,206.3c-0.8,0-1.5-0.4-2-1
		c-0.8-1.1-0.6-2.7,0.5-3.5c4.5-3.3,15.2-4.3,22.4-4.7c-6.6-2.7-18.2-4.3-26.7-4.6c-1.4-0.1-2.5-1.2-2.4-2.6
		c0.1-1.4,1.2-2.5,2.6-2.4c5.2,0.2,31.4,1.7,35.9,10.9c0.4,0.8,0.3,1.7-0.1,2.4c-0.5,0.7-1.3,1.1-2.1,1.2
		c-8.1-0.1-22.4,0.8-26.5,3.8C137.4,206.1,136.9,206.3,136.4,206.3z M217.8,241.6c-3.6,3.5-8.8,4.1-12.3,4.3
		c-4.6,0.2-9.4-0.3-14.3-1.4c-0.3-0.1-0.6-0.1-0.9-0.2c-1.4-0.3-2.7-0.6-3.9-0.5c-1.3,0.1-2.6,0.7-4.2,1.5c0,0,0,0,0,0
		c-0.4,0.8-0.6,1.6-0.8,2.2c-3.2,11.1-6.9,17.2-11.6,19.1c-1.1,0.5-2.3,0.7-3.5,0.7c-1.9,0-3.9-0.6-6.1-1.7
		c-2.5-1.4-4.2-3.7-4.9-6.9c-1.3-5.5,0.5-12.5,4.6-19.4c-0.7-1.7-1.1-3.5-1.1-5.4c0.2-3.2,1.5-5.8,3.6-7.2c1.5-1,3.3-1.3,4.7-1.4
		c0,0,0.1,0,0.1,0c3.5-0.2,6.5,0.9,9.5,1.8c1.7,0.6,3.4,1.1,5,1.4c0,0,0,0,0,0c3.4,0.6,6-0.4,9.4-1.6c0.9-0.3,1.8-0.6,2.7-0.9
		c0,0,0.1,0,0.1,0c5.2-1.5,11.2-2,17.3-1.4c2.2,0.2,4.9,0.7,7,2.5c1.8,1.5,2.8,3.7,2.8,6.2C221.2,236.4,219.9,239.5,217.8,241.6z
		 M249.4,192.5c-8.5,0.3-20.1,1.9-26.7,4.6c7.2,0.3,17.9,1.4,22.4,4.7c1.1,0.8,1.4,2.4,0.5,3.5c-0.5,0.7-1.3,1-2,1
		c-0.5,0-1-0.2-1.5-0.5c-4.1-3-18.4-3.9-26.5-3.8c-0.9,0-1.7-0.4-2.1-1.2c-0.5-0.7-0.5-1.6-0.1-2.4c4.4-9.2,30.6-10.7,35.9-10.9
		c1.4-0.1,2.5,1,2.6,2.4C251.9,191.3,250.8,192.4,249.4,192.5z"/>
	<path class="st1" d="M331.7,141.8c-2.8-44.1-34.1-76-74.4-76c-33.1,0-58.2,20.6-67.4,54.4c-4.5-14.4-12.9-27.2-24.4-36.9
		c-13.2-11.1-29.9-17.5-45.8-17.5c-36,0-68.7,34.8-71.4,76c-2,31.6,9.5,64.1,32.3,91.7c25,30.1,60.4,56.4,108.3,80.3
		c0.4,0.2,0.7,0.3,1.1,0.3s0.8-0.1,1.1-0.3c47.9-24,83.3-50.2,108.3-80.3C322.2,206.1,333.7,173.6,331.7,141.8z M190,308.8
		c-46.7-23.5-81.2-49.2-105.6-78.5c-22-26.5-33-57.8-31.1-88.1c2.5-38.7,32.9-71.4,66.4-71.4c28.5,0,61.7,22.9,67.8,61.2
		c0.2,1.2,1.2,2.1,2.5,2.1c1.2,0,2.3-0.9,2.5-2.1c6.1-37.7,30.9-61.2,64.8-61.2c42.6,0,67.2,35.9,69.4,71.4
		c1.9,30.4-9.1,61.7-31.1,88.1C271.2,259.6,236.7,285.3,190,308.8z"/>
	<path class="st1" d="M131.7,167.7c0.2,0,0.5,0,0.7-0.1l26.2-8c1.3-0.4,2.1-1.8,1.7-3.1s-1.8-2.1-3.1-1.7l-26.2,8
		c-1.3,0.4-2.1,1.8-1.7,3.1C129.6,167,130.6,167.7,131.7,167.7z"/>
	<path class="st1" d="M221.4,159.6l26.2,8c0.2,0.1,0.5,0.1,0.7,0.1c1.1,0,2.1-0.7,2.4-1.8c0.4-1.3-0.3-2.7-1.7-3.1l-26.2-8
		c-1.3-0.4-2.7,0.3-3.1,1.7C219.3,157.8,220,159.2,221.4,159.6z"/>
	<path class="st1" d="M164.4,202c0.8,0,1.7-0.4,2.1-1.2c0.5-0.7,0.5-1.6,0.1-2.4c-4.4-9.2-30.6-10.7-35.9-10.9
		c-1.4-0.1-2.5,1-2.6,2.4c-0.1,1.4,1,2.5,2.4,2.6c8.5,0.3,20.1,1.9,26.7,4.6c-7.2,0.3-17.9,1.4-22.4,4.7c-1.1,0.8-1.4,2.4-0.5,3.5
		c0.5,0.7,1.3,1,2,1c0.5,0,1-0.2,1.5-0.5C142,202.8,156.3,201.9,164.4,202z"/>
	<path class="st1" d="M249.2,187.5c-5.2,0.2-31.4,1.7-35.9,10.9c-0.4,0.8-0.3,1.7,0.1,2.4c0.5,0.7,1.3,1.2,2.1,1.2
		c8.1-0.1,22.4,0.8,26.5,3.8c0.4,0.3,1,0.5,1.5,0.5c0.8,0,1.5-0.4,2-1c0.8-1.1,0.6-2.7-0.5-3.5c-4.5-3.3-15.1-4.3-22.4-4.7
		c6.6-2.7,18.2-4.3,26.7-4.6c1.4-0.1,2.5-1.2,2.4-2.6C251.7,188.5,250.6,187.4,249.2,187.5z"/>
	<path class="st1" d="M218.3,227.2c-2.1-1.8-4.8-2.3-7-2.5c-6.1-0.6-12.1-0.1-17.3,1.4c0,0-0.1,0-0.1,0c-0.9,0.3-1.8,0.6-2.7,0.9
		c-3.3,1.2-6,2.2-9.4,1.6c0,0,0,0,0,0c-1.6-0.3-3.3-0.8-5-1.4c-3-1-6.1-2-9.5-1.8c0,0-0.1,0-0.1,0c-1.4,0.1-3.2,0.4-4.7,1.4
		c-2.1,1.4-3.5,4.1-3.6,7.2c0,1.9,0.3,3.7,1.1,5.4c-4.2,6.8-5.9,13.9-4.6,19.4c0.7,3.1,2.4,5.5,4.9,6.9c2.1,1.2,4.1,1.7,6.1,1.7
		c1.2,0,2.4-0.2,3.5-0.7c4.8-2,8.5-8.1,11.6-19.1c0.2-0.6,0.5-1.4,0.8-2.2c0,0,0,0,0,0c1.5-0.8,2.9-1.4,4.2-1.5
		c1.2-0.1,2.4,0.2,3.9,0.5c0.3,0.1,0.6,0.1,0.9,0.2c4.9,1.1,9.7,1.6,14.3,1.4c3.6-0.2,8.7-0.9,12.3-4.3c2.2-2.1,3.4-5.1,3.3-8.1
		C221,230.9,220,228.7,218.3,227.2z M177.5,246.5c-2.7,9.5-5.9,15.1-9.3,16.6c-1.7,0.7-3.7,0.4-6.1-0.9c-1.5-0.8-2.4-2.2-2.9-4.3
		c-1.1-5,1-12.2,5.7-18.7c2.8-4,6-7,7.4-8.2c0.7,0.2,1.6,0.4,2.6,0.6c0.4,0.1,0.7,0.2,1.1,0.3c-3.9,4.4-8.1,9.7-9.3,16.1
		c-0.1,0.8,0.4,1.6,1.2,1.7c0.1,0,0.2,0,0.3,0c0.7,0,1.3-0.5,1.5-1.2c1-5.8,5.2-10.8,8.9-15.1c0.2-0.2,0.3-0.5,0.3-0.9
		c1.8,0.4,3.5,0.7,5.2,0.9C181.4,237.6,178.4,243.1,177.5,246.5z"/>
	<path class="st0" d="M184.2,233.4c-1.7-0.1-3.4-0.5-5.2-0.9c0,0.3-0.1,0.6-0.3,0.9c-3.8,4.2-7.9,9.2-8.9,15.1
		c-0.1,0.7-0.8,1.2-1.5,1.2c-0.1,0-0.2,0-0.3,0c-0.8-0.1-1.4-0.9-1.2-1.7c1.1-6.4,5.3-11.6,9.3-16.1c-0.4-0.1-0.8-0.2-1.1-0.3
		c-1-0.2-1.9-0.5-2.6-0.6c-1.4,1.2-4.6,4.2-7.4,8.2c-4.7,6.6-6.8,13.7-5.7,18.7c0.5,2,1.4,3.5,2.9,4.3c2.4,1.3,4.4,1.6,6.1,0.9
		c3.5-1.4,6.6-7,9.3-16.6C178.4,243.1,181.4,237.6,184.2,233.4z"/>
</g>
</svg>
