<?xml version="1.0" encoding="utf-8"?>
<!-- Generator: Adobe Illustrator 20.1.0, SVG Export Plug-In . SVG Version: 6.00 Build 0)  -->
<svg version="1.1" id="레이어_1" xmlns="http://www.w3.org/2000/svg" xmlns:xlink="http://www.w3.org/1999/xlink" x="0px"
	 y="0px" viewBox="0 0 380 320" style="enable-background:new 0 0 380 320;" xml:space="preserve">
<style type="text/css">
	.st0{fill:#353535;}
	.st1{fill:#FFFFFF;}
</style>
<g>
	<path class="st0" d="M43.7,79.4c-2.9,2.9-2.9,6.9-2.8,10.5c0,2.2,0.1,4.2-0.4,5.9c-0.6,2.2-2.2,4-3.8,5.9c-1.6,1.9-3.3,3.9-4.3,6.4
		c-1.8,4.6-0.8,9.5,0.1,13.8c0.2,0.8,0.9,1.4,1.7,1.4c0.1,0,0.2,0,0.4,0c0.9-0.2,1.6-1.1,1.4-2.1c-0.8-3.9-1.7-8.2-0.3-11.8
		c0.7-2,2.2-3.6,3.7-5.4c1.8-2.1,3.7-4.3,4.5-7.2c0.7-2.3,0.6-4.7,0.6-7c0-3.3-0.1-6.2,1.8-8c0.7-0.7,0.7-1.8,0-2.5
		C45.5,78.8,44.4,78.8,43.7,79.4z"/>
	<path class="st0" d="M24.6,94c-8.5,7.3-11.9,20.2-7.9,30.7c0.3,0.7,0.9,1.1,1.6,1.1c0.2,0,0.4,0,0.6-0.1c0.9-0.3,1.4-1.4,1-2.3
		c-3.5-9.2-0.6-20.4,6.9-26.7c0.7-0.6,0.8-1.7,0.2-2.5C26.4,93.4,25.3,93.3,24.6,94z"/>
	<path class="st0" d="M328.7,232.8c1.1-2,1.6-4.2,2.1-6.4c0.2-1,0.5-2,0.7-2.9c0.3-1.1,1.5-4.8,4.5-5.4c0.9-0.2,1.5-1.1,1.3-2.1
		c-0.2-0.9-1.1-1.5-2.1-1.3c-3.3,0.8-6,3.7-7.1,7.9c-0.3,1-0.6,2.1-0.8,3.1c-0.5,2-0.9,3.8-1.8,5.4c-1.6,2.8-4.6,4.5-7.7,6.3
		c-1.4,0.8-2.8,1.6-4.1,2.5c-3.4,2.4-5.9,6.1-6.4,9.5c-0.3,2.3,0.2,4.5,1.5,6.2c0.3,0.4,0.9,0.7,1.4,0.7c0.4,0,0.8-0.1,1.1-0.4
		c0.8-0.6,0.9-1.7,0.3-2.5c-0.8-1-1-2.1-0.8-3.5c0.4-2.5,2.4-5.4,4.9-7.2c1.2-0.8,2.5-1.6,3.8-2.4
		C323.1,238.4,326.6,236.4,328.7,232.8z"/>
	<path class="st0" d="M339.3,236.8c-0.4-0.9-1.4-1.3-2.3-0.9c-0.9,0.4-1.3,1.4-0.9,2.3c2,4.3-0.1,10.2-4.3,12.4
		c-0.5,0.3-1.1,0.5-1.7,0.8c-1,0.4-2.1,0.8-3.1,1.6c-2.5,1.8-3.6,4.7-4.6,7.2c-0.9,2.3-1.7,4.5-3.5,5.6c-0.8,0.5-1,1.6-0.5,2.4
		c0.3,0.5,0.9,0.8,1.5,0.8c0.3,0,0.7-0.1,1-0.3c2.7-1.7,3.8-4.6,4.8-7.3c0.9-2.3,1.7-4.4,3.3-5.6c0.7-0.5,1.5-0.8,2.4-1.2
		c0.7-0.3,1.3-0.5,2-0.9C339.3,250.7,342.1,242.8,339.3,236.8z"/>
	<path class="st1" d="M229,182.1c-3,0-5.5,2.5-5.5,5.5v17.3c0,3,2.5,5.5,5.5,5.5s5.5-2.5,5.5-5.5v-17.3
		C234.5,184.6,232,182.1,229,182.1z"/>
	<path class="st1" d="M149,182.1c-3,0-5.5,2.5-5.5,5.5v17.3c0,3,2.5,5.5,5.5,5.5s5.5-2.5,5.5-5.5v-17.3
		C154.5,184.6,152,182.1,149,182.1z"/>
	<path class="st1" d="M325.7,142.2c-2.2-35.5-26.8-71.4-69.4-71.4c-33.9,0-58.8,23.4-64.8,61.2c-0.2,1.2-1.2,2.1-2.5,2.1
		s-2.3-0.9-2.5-2.1c-6.1-38.3-39.3-61.2-67.8-61.2c-33.5,0-63.9,32.7-66.4,71.4c-1.9,30.3,9.1,61.6,31.1,88.1
		c24.3,29.3,58.9,55,105.6,78.5c46.7-23.5,81.2-49.2,105.6-78.5C316.6,203.9,327.6,172.6,325.7,142.2z M130.7,167.7
		c-1.1,0-2.1-0.7-2.4-1.8c-0.4-1.3,0.3-2.7,1.7-3.1l26.2-8c1.3-0.4,2.7,0.3,3.1,1.7c0.4,1.3-0.3,2.7-1.7,3.1l-26.2,8
		C131.2,167.7,130.9,167.7,130.7,167.7z M159.5,204.9c0,5.8-4.7,10.5-10.5,10.5s-10.5-4.7-10.5-10.5v-17.3c0-5.8,4.7-10.5,10.5-10.5
		s10.5,4.7,10.5,10.5V204.9z M209.6,234.8c-2.8,0-4.3-1.7-5.3-2.8c-0.9-1-1.1-1.2-1.6-1.2c-0.5,0-0.7,0.1-1.5,1.1
		c-1,1.2-2.5,2.9-5.4,2.9c-2.8,0-4.3-1.7-5.3-2.8c-0.9-1-1.1-1.2-1.6-1.2c-0.5,0-0.7,0.1-1.5,1.1c-1,1.2-2.5,2.9-5.4,2.9
		c-2.8,0-4.3-1.7-5.3-2.8c-0.9-1-1.1-1.2-1.6-1.2c-0.5,0-0.7,0.1-1.5,1.1c-1,1.2-2.5,2.9-5.4,2.9c-1.4,0-2.5-1.1-2.5-2.5
		s1.1-2.5,2.5-2.5c0.5,0,0.7-0.2,1.6-1.2c1-1.1,2.5-2.8,5.3-2.8c2.9,0,4.4,1.7,5.4,2.9c0.8,1,1,1.1,1.5,1.1c0.5,0,0.7-0.2,1.6-1.2
		c1-1.1,2.5-2.8,5.3-2.8c2.9,0,4.4,1.7,5.4,2.9c0.8,1,1,1.1,1.5,1.1c0.5,0,0.7-0.2,1.6-1.2c1-1.1,2.5-2.8,5.3-2.8
		c2.9,0,4.4,1.7,5.4,2.9c0.8,1,1,1.1,1.5,1.1c1.4,0,2.5,1.1,2.5,2.5S211,234.8,209.6,234.8z M239.5,204.9c0,5.8-4.7,10.5-10.5,10.5
		s-10.5-4.7-10.5-10.5v-17.3c0-5.8,4.7-10.5,10.5-10.5s10.5,4.7,10.5,10.5V204.9z M249.7,165.9c-0.3,1.1-1.3,1.8-2.4,1.8
		c-0.2,0-0.5,0-0.7-0.1l-26.2-8c-1.3-0.4-2.1-1.8-1.7-3.1c0.4-1.3,1.8-2.1,3.1-1.7l26.2,8C249.4,163.2,250.1,164.6,249.7,165.9z"/>
	<path class="st0" d="M330.7,141.8c-2.8-44.1-34.1-76-74.4-76c-33.1,0-58.2,20.6-67.4,54.4c-4.5-14.4-12.9-27.2-24.4-36.9
		c-13.2-11.1-29.9-17.5-45.8-17.5c-36,0-68.7,34.8-71.4,76c-2,31.6,9.5,64.1,32.3,91.7c25,30.1,60.4,56.4,108.3,80.3
		c0.4,0.2,0.7,0.3,1.1,0.3s0.8-0.1,1.1-0.3c47.9-24,83.3-50.2,108.3-80.3C321.2,206.1,332.7,173.6,330.7,141.8z M189,308.8
		c-46.7-23.5-81.2-49.2-105.6-78.5c-22-26.5-33-57.8-31.1-88.1c2.5-38.7,32.9-71.4,66.4-71.4c28.5,0,61.7,22.9,67.8,61.2
		c0.2,1.2,1.2,2.1,2.5,2.1s2.3-0.9,2.5-2.1c6.1-37.7,30.9-61.2,64.8-61.2c42.6,0,67.2,35.9,69.4,71.4c1.9,30.4-9.1,61.7-31.1,88.1
		C270.2,259.6,235.7,285.3,189,308.8z"/>
	<path class="st0" d="M159.3,156.5c-0.4-1.3-1.8-2.1-3.1-1.7l-26.2,8c-1.3,0.4-2.1,1.8-1.7,3.1c0.3,1.1,1.3,1.8,2.4,1.8
		c0.2,0,0.5,0,0.7-0.1l26.2-8C159,159.2,159.7,157.8,159.3,156.5z"/>
	<path class="st0" d="M248,162.8l-26.2-8c-1.3-0.4-2.7,0.3-3.1,1.7c-0.4,1.3,0.3,2.7,1.7,3.1l26.2,8c0.2,0.1,0.5,0.1,0.7,0.1
		c1.1,0,2.1-0.7,2.4-1.8C250.1,164.6,249.4,163.2,248,162.8z"/>
	<path class="st0" d="M209.6,229.8c-0.5,0-0.7-0.1-1.5-1.1c-1-1.2-2.5-2.9-5.4-2.9c-2.8,0-4.3,1.7-5.3,2.8c-0.9,1-1.1,1.2-1.6,1.2
		c-0.5,0-0.7-0.1-1.5-1.1c-1-1.2-2.5-2.9-5.4-2.9c-2.8,0-4.3,1.7-5.3,2.8c-0.9,1-1.1,1.2-1.6,1.2c-0.5,0-0.7-0.1-1.5-1.1
		c-1-1.2-2.5-2.9-5.4-2.9c-2.8,0-4.3,1.7-5.3,2.8c-0.9,1-1.1,1.2-1.6,1.2c-1.4,0-2.5,1.1-2.5,2.5s1.1,2.5,2.5,2.5
		c2.9,0,4.4-1.7,5.4-2.9c0.8-1,1-1.1,1.5-1.1c0.5,0,0.7,0.2,1.6,1.2c1,1.1,2.5,2.8,5.3,2.8c2.9,0,4.4-1.7,5.4-2.9
		c0.8-1,1-1.1,1.5-1.1c0.5,0,0.7,0.2,1.6,1.2c1,1.1,2.5,2.8,5.3,2.8c2.9,0,4.4-1.7,5.4-2.9c0.8-1,1-1.1,1.5-1.1
		c0.5,0,0.7,0.2,1.6,1.2c1,1.1,2.5,2.8,5.3,2.8c1.4,0,2.5-1.1,2.5-2.5S211,229.8,209.6,229.8z"/>
	<path class="st0" d="M149,177.1c-5.8,0-10.5,4.7-10.5,10.5v17.3c0,5.8,4.7,10.5,10.5,10.5s10.5-4.7,10.5-10.5v-17.3
		C159.5,181.8,154.8,177.1,149,177.1z M154.5,204.9c0,3-2.5,5.5-5.5,5.5s-5.5-2.5-5.5-5.5v-17.3c0-3,2.5-5.5,5.5-5.5
		s5.5,2.5,5.5,5.5V204.9z"/>
	<path class="st0" d="M229,177.1c-5.8,0-10.5,4.7-10.5,10.5v17.3c0,5.8,4.7,10.5,10.5,10.5s10.5-4.7,10.5-10.5v-17.3
		C239.5,181.8,234.8,177.1,229,177.1z M234.5,204.9c0,3-2.5,5.5-5.5,5.5s-5.5-2.5-5.5-5.5v-17.3c0-3,2.5-5.5,5.5-5.5
		s5.5,2.5,5.5,5.5V204.9z"/>
</g>
</svg>
