<?xml version="1.0" encoding="utf-8"?>
<!-- Generator: Adobe Illustrator 20.1.0, SVG Export Plug-In . SVG Version: 6.00 Build 0)  -->
<svg version="1.1" id="레이어_1" xmlns="http://www.w3.org/2000/svg" xmlns:xlink="http://www.w3.org/1999/xlink" x="0px"
	 y="0px" viewBox="0 0 380 380" style="enable-background:new 0 0 380 380;" xml:space="preserve">
<style type="text/css">
	.st0{fill:none;stroke:#353535;stroke-width:6;stroke-linecap:round;stroke-linejoin:round;stroke-miterlimit:10;}
	.st1{fill:#FFFFFF;stroke:#353535;stroke-width:10;stroke-linecap:round;stroke-linejoin:round;stroke-miterlimit:10;}
	.st2{fill:none;stroke:#353535;stroke-width:5;stroke-linecap:round;stroke-linejoin:round;stroke-miterlimit:10;}
	.st3{fill:none;stroke:#353535;stroke-width:6;stroke-miterlimit:10;}
</style>
<path class="st0" d="M44.9,80.7c-3.9,3.8-1.3,10.5-2.8,15.7c-1.4,4.8-6.4,7.8-8.2,12.5c-1.6,4-0.7,8.5,0.2,12.8"/>
<path class="st0" d="M25.7,95.3c-8,6.8-11.1,18.9-7.4,28.7"/>
<path class="st0" d="M335.7,216.3c-3.1,0.7-5,3.7-5.8,6.7c-0.9,3-1.2,6.2-2.7,8.9c-2.6,4.5-8,6.4-12.3,9.4s-7.7,9.1-4.5,13.2"/>
<path class="st0" d="M337.7,237.5c2.4,5.2,0,12.1-5.1,14.7c-1.5,0.8-3.2,1.2-4.6,2.2c-4.2,3.1-3.8,10.1-8.1,12.9"/>
<path class="st0" d="M44.9,80.7c-3.9,3.8-1.3,10.5-2.8,15.7c-1.4,4.8-6.4,7.8-8.2,12.5c-1.6,4-0.7,8.5,0.2,12.8"/>
<path class="st0" d="M25.7,95.3c-8,6.8-11.1,18.9-7.4,28.7"/>
<path class="st0" d="M335.7,216.3c-3.1,0.7-5,3.7-5.8,6.7c-0.9,3-1.2,6.2-2.7,8.9c-2.6,4.5-8,6.4-12.3,9.4s-7.7,9.1-4.5,13.2"/>
<path class="st0" d="M337.7,237.5c2.4,5.2,0,12.1-5.1,14.7c-1.5,0.8-3.2,1.2-4.6,2.2c-4.2,3.1-3.8,10.1-8.1,12.9"/>
<g>
	<path class="st1" d="M190,311.6c39.8-19.9,78.8-45.1,107.5-79.7c20.9-25.1,33.8-56.4,31.7-89.9c-2.5-39.7-30.2-73.7-71.9-73.7
		c-35.3,0-61,24-67.3,63.3c-6.3-39.3-40-63.3-70.3-63.3c-34.7,0-66.3,34-68.9,73.7c-2.1,33.4,10.9,64.8,31.7,89.9
		C111.2,266.5,150.2,291.7,190,311.6z"/>
	<g>
		<line class="st0" x1="157.9" y1="157.2" x2="131.7" y2="165.2"/>
		<line class="st0" x1="222.1" y1="157.2" x2="248.3" y2="165.2"/>
	</g>
	<path class="st1" d="M190,311.6c39.8-19.9,78.8-45.1,107.5-79.7c20.9-25.1,33.8-56.4,31.7-89.9c-2.5-39.7-30.2-73.7-71.9-73.7
		c-35.3,0-61,24-67.3,63.3c-6.3-39.3-40-63.3-70.3-63.3c-34.7,0-66.3,34-68.9,73.7c-2.1,33.4,10.9,64.8,31.7,89.9
		C111.2,266.5,150.2,291.7,190,311.6z"/>
	<path class="st2" d="M169.2,232.3c3.5,0,3.5-4,6.9-4c3.5,0,3.5,4,6.9,4c3.5,0,3.5-4,6.9-4c3.5,0,3.5,4,6.9,4c3.5,0,3.5-4,6.9-4
		c3.5,0,3.5,4,6.9,4"/>
	<g>
		<line class="st0" x1="157.9" y1="157.2" x2="131.7" y2="165.2"/>
		<line class="st0" x1="222.1" y1="157.2" x2="248.3" y2="165.2"/>
	</g>
	<g>
		<path class="st3" d="M150,212.9L150,212.9c-4.4,0-8-3.6-8-8v-17.3c0-4.4,3.6-8,8-8h0c4.4,0,8,3.6,8,8v17.3
			C158,209.3,154.4,212.9,150,212.9z"/>
		<path class="st3" d="M230,212.9L230,212.9c-4.4,0-8-3.6-8-8v-17.3c0-4.4,3.6-8,8-8h0c4.4,0,8,3.6,8,8v17.3
			C238,209.3,234.4,212.9,230,212.9z"/>
	</g>
</g>
</svg>
