<?xml version="1.0" encoding="utf-8"?>
<!-- Generator: Adobe Illustrator 20.1.0, SVG Export Plug-In . SVG Version: 6.00 Build 0)  -->
<svg version="1.1" id="레이어_1" xmlns="http://www.w3.org/2000/svg" xmlns:xlink="http://www.w3.org/1999/xlink" x="0px"
	 y="0px" viewBox="0 0 380 320" style="enable-background:new 0 0 380 320;" xml:space="preserve">
<style type="text/css">
	.st0{fill:#FFFFFF;}
	.st1{fill:#353535;}
	.st2{display:none;}
	
		.st3{display:inline;fill:#FFFFFF;stroke:#353535;stroke-width:10;stroke-linecap:round;stroke-linejoin:round;stroke-miterlimit:10;}
	.st4{display:inline;fill:none;stroke:#353535;stroke-width:6;stroke-linecap:round;stroke-linejoin:round;stroke-miterlimit:10;}
	.st5{display:inline;}
	.st6{fill:none;stroke:#353535;stroke-width:6;stroke-miterlimit:10;}
	.st7{fill:none;stroke:#353535;stroke-width:7;stroke-linecap:round;stroke-linejoin:round;stroke-miterlimit:10;}
</style>
<g>
	<path class="st0" d="M326.7,142.2c-2.2-35.5-26.8-71.4-69.4-71.4c-33.9,0-58.8,23.4-64.8,61.2c-0.2,1.2-1.2,2.1-2.5,2.1
		c-1.2,0-2.3-0.9-2.5-2.1c-6.1-38.3-39.3-61.2-67.8-61.2c-33.5,0-63.9,32.7-66.4,71.4c-1.9,30.3,9.1,61.6,31.1,88.1
		c24.3,29.3,58.9,55,105.6,78.5c46.7-23.5,81.2-49.2,105.6-78.5C317.6,203.9,328.6,172.6,326.7,142.2z M220,155.2
		c7.3-4.7,17.4-4.7,24.6,0c1.2,0.8,1.5,2.3,0.7,3.5c-0.8,1.2-2.3,1.5-3.5,0.7c-5.6-3.7-13.5-3.7-19.2,0c-0.4,0.3-0.9,0.4-1.4,0.4
		c-0.8,0-1.6-0.4-2.1-1.1C218.6,157.5,218.9,155.9,220,155.2z M135.3,155.2c7.2-4.7,17.3-4.7,24.6,0c1.2,0.7,1.5,2.3,0.7,3.5
		c-0.5,0.7-1.3,1.1-2.1,1.1c-0.5,0-0.9-0.1-1.4-0.4c-5.7-3.7-13.6-3.7-19.2,0c-1.2,0.8-2.7,0.4-3.5-0.7
		C133.9,157.5,134.2,156,135.3,155.2z M163.3,201.2c-1.1,0-2.2-0.5-2.9-1.5c-3.2-4.6-9.1-6.5-13.4-7.3c-7.5-1.3-14.7-0.1-19.7,3.2
		c-1.6,1.1-3.8,0.6-4.8-1c-1.1-1.6-0.6-3.8,1-4.8c6.6-4.3,15.4-5.8,24.8-4.2c5.7,1.1,13.5,3.7,18,10.3c1.1,1.6,0.7,3.8-0.9,4.9
		C164.7,201,164,201.2,163.3,201.2z M190,250.4c-19,0-24.5-19.9-24.7-30.3c0-0.7,0.2-1.3,0.7-1.8s1.1-0.8,1.8-0.8h44.4
		c0.7,0,1.3,0.3,1.8,0.8c0.5,0.5,0.7,1.1,0.7,1.8C214.5,230.5,209,250.4,190,250.4z M257.6,194.5c-1.1,1.6-3.2,2.1-4.8,1
		c-5-3.3-12.3-4.5-19.8-3.2c-4.3,0.8-10.2,2.7-13.4,7.3c-0.7,1-1.8,1.5-2.9,1.5c-0.7,0-1.4-0.2-2-0.6c-1.6-1.1-2-3.3-0.9-4.9
		c4.5-6.6,12.3-9.2,18-10.3c9.4-1.6,18.3-0.1,24.9,4.2C258.2,190.7,258.7,192.9,257.6,194.5z"/>
	<path class="st1" d="M331.7,141.8c-2.8-44.1-34.1-76-74.4-76c-33.1,0-58.2,20.6-67.4,54.4c-4.5-14.4-12.9-27.2-24.4-36.9
		c-13.2-11.1-29.9-17.5-45.8-17.5c-36,0-68.7,34.8-71.4,76c-2,31.6,9.5,64.1,32.3,91.7c25,30.1,60.4,56.4,108.3,80.3
		c0.4,0.2,0.7,0.3,1.1,0.3s0.8-0.1,1.1-0.3c47.9-24,83.3-50.2,108.3-80.3C322.2,206.1,333.7,173.6,331.7,141.8z M190,308.8
		c-46.7-23.5-81.2-49.2-105.6-78.5c-22-26.5-33-57.8-31.1-88.1c2.5-38.7,32.9-71.4,66.4-71.4c28.5,0,61.7,22.9,67.8,61.2
		c0.2,1.2,1.2,2.1,2.5,2.1c1.2,0,2.3-0.9,2.5-2.1c6.1-37.7,30.9-61.2,64.8-61.2c42.6,0,67.2,35.9,69.4,71.4
		c1.9,30.4-9.1,61.7-31.1,88.1C271.2,259.6,236.7,285.3,190,308.8z"/>
	<path class="st0" d="M209.5,222.5h-39c0.7,6.5,4,22.9,19.5,22.9C205.5,245.4,208.8,229,209.5,222.5z"/>
	<path class="st1" d="M212.2,217.5h-44.4c-0.7,0-1.3,0.3-1.8,0.8s-0.7,1.1-0.7,1.8c0.2,10.5,5.7,30.3,24.7,30.3
		c19,0,24.5-19.9,24.7-30.3c0-0.7-0.2-1.3-0.7-1.8C213.5,217.8,212.9,217.5,212.2,217.5z M190,245.4c-15.5,0-18.8-16.4-19.5-22.9h39
		C208.8,229,205.5,245.4,190,245.4z"/>
	<path class="st1" d="M138.1,159.4c5.6-3.7,13.5-3.7,19.2,0c0.4,0.3,0.9,0.4,1.4,0.4c0.8,0,1.6-0.4,2.1-1.1c0.7-1.2,0.4-2.7-0.7-3.5
		c-7.3-4.7-17.4-4.7-24.6,0c-1.2,0.8-1.5,2.3-0.7,3.5C135.4,159.8,136.9,160.1,138.1,159.4z"/>
	<path class="st1" d="M221.4,159.8c0.5,0,0.9-0.1,1.4-0.4c5.7-3.7,13.6-3.7,19.2,0c1.2,0.8,2.7,0.4,3.5-0.7c0.8-1.2,0.4-2.7-0.7-3.5
		c-7.2-4.7-17.3-4.7-24.6,0c-1.2,0.7-1.5,2.3-0.7,3.5C219.8,159.4,220.6,159.8,221.4,159.8z"/>
	<path class="st1" d="M256.6,189.7c-6.6-4.3-15.4-5.8-24.9-4.2c-5.7,1-13.4,3.7-18,10.3c-1.1,1.6-0.7,3.8,0.9,4.9
		c0.6,0.4,1.3,0.6,2,0.6c1.1,0,2.2-0.5,2.9-1.5c3.2-4.6,9.1-6.5,13.4-7.3c7.5-1.3,14.8-0.1,19.8,3.2c1.6,1.1,3.8,0.6,4.8-1
		C258.7,192.9,258.2,190.7,256.6,189.7z"/>
	<path class="st1" d="M166.2,195.7c-4.5-6.6-12.3-9.2-18-10.3c-9.4-1.6-18.2-0.1-24.8,4.2c-1.6,1.1-2.1,3.2-1,4.8
		c1.1,1.6,3.2,2.1,4.8,1c5-3.3,12.3-4.5,19.7-3.2c4.4,0.8,10.3,2.7,13.4,7.3c0.7,1,1.8,1.5,2.9,1.5c0.7,0,1.4-0.2,2-0.6
		C166.9,199.5,167.3,197.3,166.2,195.7z"/>
</g>
<g class="st2">
	<path class="st3" d="M190,311.6c39.8-19.9,78.8-45.1,107.5-79.7c20.9-25.1,33.8-56.4,31.7-89.9c-2.5-39.7-30.2-73.7-71.9-73.7
		c-35.3,0-61,24-67.3,63.3c-6.3-39.3-40-63.3-70.3-63.3c-34.7,0-66.3,34-68.9,73.7c-2.1,33.4,10.9,64.8,31.7,89.9
		C111.2,266.5,150.2,291.7,190,311.6z"/>
	<line class="st4" x1="171.7" y1="232.3" x2="208.3" y2="232.3"/>
	<g class="st5">
		<path class="st6" d="M142,204.9c0,4.4,3.6,8,8,8s8-3.6,8-8v-16.3h-16V204.9z"/>
		<path class="st6" d="M222,204.9c0,4.4,3.6,8,8,8s8-3.6,8-8v-16.3h-16V204.9z"/>
	</g>
	<line class="st4" x1="133.2" y1="188.6" x2="166.8" y2="188.6"/>
	<line class="st4" x1="213.2" y1="188.6" x2="246.8" y2="188.6"/>
	<g class="st5">
		<line class="st7" x1="139" y1="157.9" x2="159.7" y2="157.9"/>
		<line class="st7" x1="241" y1="157.9" x2="220.3" y2="157.9"/>
	</g>
</g>
</svg>
