<?xml version="1.0" encoding="utf-8"?>
<!-- Generator: Adobe Illustrator 20.1.0, SVG Export Plug-In . SVG Version: 6.00 Build 0)  -->
<svg version="1.1" id="레이어_1" xmlns="http://www.w3.org/2000/svg" xmlns:xlink="http://www.w3.org/1999/xlink" x="0px"
	 y="0px" viewBox="0 0 380 380" style="enable-background:new 0 0 380 380;" xml:space="preserve">
<style type="text/css">
	.st0{fill:#FFFFFF;stroke:#353535;stroke-width:10;stroke-linecap:round;stroke-linejoin:round;stroke-miterlimit:10;}
	.st1{fill:none;stroke:#353535;stroke-width:6;stroke-linecap:round;stroke-linejoin:round;stroke-miterlimit:10;}
	.st2{fill:#FFFFFF;stroke:#353535;stroke-width:6;stroke-linecap:round;stroke-linejoin:round;stroke-miterlimit:10;}
	.st3{fill:none;stroke:#353535;stroke-width:9;stroke-linecap:round;stroke-linejoin:round;stroke-miterlimit:10;}
	.st4{display:none;}
	
		.st5{display:inline;fill:#FFFFFF;stroke:#353535;stroke-width:10;stroke-linecap:round;stroke-linejoin:round;stroke-miterlimit:10;}
	.st6{display:inline;fill:none;stroke:#353535;stroke-width:6;stroke-linecap:round;stroke-linejoin:round;stroke-miterlimit:10;}
	.st7{display:inline;}
	.st8{fill:none;stroke:#353535;stroke-width:6;stroke-miterlimit:10;}
	.st9{fill:none;stroke:#353535;stroke-width:7;stroke-linecap:round;stroke-linejoin:round;stroke-miterlimit:10;}
</style>
<path class="st0" d="M190,311.6c39.8-19.9,78.8-45.1,107.5-79.7c20.9-25.1,33.8-56.4,31.7-89.9c-2.5-39.7-30.2-73.7-71.9-73.7
	c-35.3,0-61,24-67.3,63.3c-6.3-39.3-40-63.3-70.3-63.3c-34.7,0-66.3,34-68.9,73.7c-2.1,33.4,10.9,64.8,31.7,89.9
	C111.2,266.5,150.2,291.7,190,311.6z"/>
<line class="st1" x1="171.7" y1="224.3" x2="208.3" y2="224.3"/>
<path class="st2" d="M212.2,220h-44.4c0,0,0.6,27.9,22.2,27.9S212.2,220,212.2,220z"/>
<g>
	<path class="st1" d="M136.7,157.3c6.4-4.2,15.4-4.2,21.9,0"/>
	<path class="st1" d="M243.3,157.3c-6.4-4.2-15.4-4.2-21.9,0"/>
</g>
<g>
	<path class="st3" d="M216.7,197.7c3.5-5.1,9.7-7.7,15.7-8.8c7.6-1.3,15.9-0.5,22.3,3.7"/>
	<path class="st3" d="M163.3,197.7c-3.5-5.1-9.7-7.7-15.7-8.8c-7.6-1.3-15.9-0.5-22.3,3.7"/>
</g>
<g class="st4">
	<path class="st5" d="M190,311.6c39.8-19.9,78.8-45.1,107.5-79.7c20.9-25.1,33.8-56.4,31.7-89.9c-2.5-39.7-30.2-73.7-71.9-73.7
		c-35.3,0-61,24-67.3,63.3c-6.3-39.3-40-63.3-70.3-63.3c-34.7,0-66.3,34-68.9,73.7c-2.1,33.4,10.9,64.8,31.7,89.9
		C111.2,266.5,150.2,291.7,190,311.6z"/>
	<line class="st6" x1="171.7" y1="232.3" x2="208.3" y2="232.3"/>
	<g class="st7">
		<path class="st8" d="M142,204.9c0,4.4,3.6,8,8,8c4.4,0,8-3.6,8-8v-16.3h-16V204.9z"/>
		<path class="st8" d="M222,204.9c0,4.4,3.6,8,8,8c4.4,0,8-3.6,8-8v-16.3h-16V204.9z"/>
	</g>
	<line class="st6" x1="133.2" y1="188.6" x2="166.8" y2="188.6"/>
	<line class="st6" x1="213.2" y1="188.6" x2="246.8" y2="188.6"/>
	<g class="st7">
		<line class="st9" x1="139" y1="157.9" x2="159.7" y2="157.9"/>
		<line class="st9" x1="241" y1="157.9" x2="220.3" y2="157.9"/>
	</g>
</g>
</svg>
