<?xml version="1.0" encoding="utf-8"?>
<!-- Generator: Adobe Illustrator 20.1.0, SVG Export Plug-In . SVG Version: 6.00 Build 0)  -->
<svg version="1.1" id="레이어_1" xmlns="http://www.w3.org/2000/svg" xmlns:xlink="http://www.w3.org/1999/xlink" x="0px"
	 y="0px" viewBox="0 0 380 320" style="enable-background:new 0 0 380 320;" xml:space="preserve">
<style type="text/css">
	.st0{fill:#FFFFFF;}
	.st1{fill:#353535;}
</style>
<g>
	<path class="st0" d="M24.1,91.7c0,5.4-1.1,12-5.2,16.3c5.8,1.3,10.3,6.4,13.3,10.9c0-5.4,1.1-12,5.2-16.3
		C31.6,101.3,27.1,96.2,24.1,91.7z"/>
	<path class="st1" d="M43.4,99c-11.9,3.5-20-15.9-20.1-16.1c-0.3-0.8-1.3-1.3-2.1-1c-0.9,0.3-1.4,1.1-1.2,2c0,0.2,3.9,20.8-8.1,24.4
		c-0.9,0.3-1.4,1.3-1.2,2.2c0.3,0.9,1.2,1.5,2.2,1.2c11.9-3.5,20,15.9,20.1,16.1c0.3,0.7,0.9,1.1,1.6,1.1c0.2,0,0.3,0,0.5-0.1
		c0.9-0.3,1.4-1.1,1.2-2c0-0.2-3.9-20.8,8.1-24.4c0.9-0.3,1.4-1.3,1.2-2.2C45.3,99.3,44.3,98.7,43.4,99z M32.2,119
		c-3-4.5-7.5-9.5-13.3-10.9c4.2-4.3,5.2-11,5.2-16.3c3,4.5,7.5,9.5,13.3,10.9C33.3,106.9,32.2,113.6,32.2,119z"/>
	<path class="st0" d="M314.3,264.7c-1.9,3.3-4.8,6.8-8.6,8.3c2.9,2.9,4.1,7.1,4.6,10.9c1.9-3.3,4.8-6.8,8.6-8.2
		C316.1,272.7,314.8,268.4,314.3,264.7z"/>
	<path class="st1" d="M325.3,275.1c-9.1-1.9-7.6-17.7-7.6-17.9c0.1-0.9-0.5-1.7-1.4-1.9c-0.9-0.2-1.8,0.3-2,1.2
		c0,0.2-4.9,15.4-14,13.5c0,0-0.1,0-0.1,0c-0.9-0.2-1.9,0.4-2.1,1.4c-0.2,0.9,0.4,1.9,1.3,2.1c0,0,0.1,0,0.1,0
		c9,1.9,7.5,17.7,7.5,17.9c-0.1,0.9,0.5,1.7,1.4,1.9c0.1,0,0.2,0,0.3,0c0.8,0,1.4-0.5,1.7-1.2c0-0.2,4.8-15.4,14.1-13.5
		c0.9,0.2,1.9-0.4,2.1-1.4C326.8,276.2,326.2,275.3,325.3,275.1z M310.4,283.8c-0.5-3.8-1.7-8-4.6-10.9c3.8-1.5,6.7-5,8.6-8.3
		c0.5,3.8,1.7,8.1,4.6,10.9C315.1,277.1,312.3,280.5,310.4,283.8z"/>
	<path class="st0" d="M326.7,142.2c-2.2-35.5-26.8-71.4-69.4-71.4c-33.9,0-58.8,23.4-64.8,61.2c-0.2,1.2-1.2,2.1-2.5,2.1
		c-1.2,0-2.3-0.9-2.5-2.1c-6.1-38.3-39.3-61.2-67.8-61.2c-33.5,0-63.9,32.7-66.4,71.4c-1.9,30.3,9.1,61.6,31.1,88.1
		c24.3,29.3,58.9,55,105.6,78.5c46.7-23.5,81.2-49.2,105.6-78.5C317.6,203.9,328.6,172.6,326.7,142.2z M159,206c0,5-4,9-9,9
		s-9-4.1-9-9v-19.5c0-5,4.1-9,9-9c5,0,9,4.1,9,9V206z M160.7,166.7c-0.5,0.7-1.3,1.1-2.1,1.1c-0.5,0-0.9-0.1-1.4-0.4
		c-5.7-3.7-13.6-3.7-19.2,0c-1.2,0.8-2.7,0.4-3.5-0.7c-0.8-1.2-0.4-2.7,0.7-3.5c7.2-4.7,17.3-4.7,24.6,0
		C161.1,163.9,161.4,165.5,160.7,166.7z M190,245.4c-19,0-24.5-19.9-24.7-30.3c0-0.7,0.2-1.3,0.7-1.8s1.1-0.8,1.8-0.8h44.4
		c0.7,0,1.3,0.3,1.8,0.8c0.5,0.5,0.7,1.1,0.7,1.8C214.5,225.5,209,245.4,190,245.4z M239,206c0,5-4,9-9,9s-9-4.1-9-9v-19.5
		c0-5,4.1-9,9-9c5,0,9,4.1,9,9V206z M245.4,166.7c-0.8,1.2-2.3,1.5-3.5,0.7c-5.6-3.7-13.5-3.7-19.2,0c-0.4,0.3-0.9,0.4-1.4,0.4
		c-0.8,0-1.6-0.4-2.1-1.1c-0.8-1.2-0.4-2.7,0.7-3.5c7.3-4.7,17.4-4.7,24.6,0C245.8,164,246.1,165.5,245.4,166.7z"/>
	<path class="st1" d="M331.7,141.8c-2.8-44.1-34.1-76-74.4-76c-33.1,0-58.2,20.6-67.4,54.4c-4.5-14.4-12.9-27.2-24.4-36.9
		c-13.2-11.1-29.9-17.5-45.8-17.5c-36,0-68.7,34.8-71.4,76c-2,31.6,9.5,64.1,32.3,91.7c25,30.1,60.4,56.4,108.3,80.3
		c0.4,0.2,0.7,0.3,1.1,0.3s0.8-0.1,1.1-0.3c47.9-24,83.3-50.2,108.3-80.3C322.2,206.1,333.7,173.6,331.7,141.8z M190,308.8
		c-46.7-23.5-81.2-49.2-105.6-78.5c-22-26.5-33-57.8-31.1-88.1c2.5-38.7,32.9-71.4,66.4-71.4c28.5,0,61.7,22.9,67.8,61.2
		c0.2,1.2,1.2,2.1,2.5,2.1c1.2,0,2.3-0.9,2.5-2.1c6.1-37.7,30.9-61.2,64.8-61.2c42.6,0,67.2,35.9,69.4,71.4
		c1.9,30.4-9.1,61.7-31.1,88.1C271.2,259.6,236.7,285.3,190,308.8z"/>
	<path class="st1" d="M230,177.5c-4.9,0-9,4-9,9V206c0,4.9,4,9,9,9s9-4,9-9v-19.5C239,181.6,235,177.5,230,177.5z M229.9,204.9
		c0,0-0.8-8.7-6.2-8.7c5.5,0.1,6.3-8.6,6.3-8.6s0.8,8.7,6.2,8.7C230.8,196.3,229.9,204.9,229.9,204.9z"/>
	<path class="st0" d="M170.5,217.5c0.7,6.5,4,22.9,19.5,22.9c15.5,0,18.8-16.4,19.5-22.9H170.5z"/>
	<path class="st1" d="M212.2,212.5h-44.4c-0.7,0-1.3,0.3-1.8,0.8s-0.7,1.1-0.7,1.8c0.2,10.5,5.7,30.3,24.7,30.3
		c19,0,24.5-19.9,24.7-30.3c0-0.7-0.2-1.3-0.7-1.8C213.5,212.8,212.9,212.5,212.2,212.5z M190,240.4c-15.5,0-18.8-16.4-19.5-22.9h39
		C208.8,224,205.5,240.4,190,240.4z"/>
	<path class="st1" d="M160,163.2c-7.3-4.7-17.4-4.7-24.6,0c-1.2,0.8-1.5,2.3-0.7,3.5c0.8,1.2,2.3,1.5,3.5,0.7
		c5.6-3.7,13.5-3.7,19.2,0c0.4,0.3,0.9,0.4,1.4,0.4c0.8,0,1.6-0.4,2.1-1.1C161.4,165.5,161.1,163.9,160,163.2z"/>
	<path class="st1" d="M244.7,163.2c-7.2-4.7-17.3-4.7-24.6,0c-1.2,0.7-1.5,2.3-0.7,3.5c0.5,0.7,1.3,1.1,2.1,1.1
		c0.5,0,0.9-0.1,1.4-0.4c5.7-3.7,13.6-3.7,19.2,0c1.2,0.8,2.7,0.4,3.5-0.7C246.1,165.5,245.8,164,244.7,163.2z"/>
	<path class="st1" d="M150,177.5c-4.9,0-9,4-9,9V206c0,4.9,4,9,9,9s9-4,9-9v-19.5C159,181.6,155,177.5,150,177.5z M149.9,204.9
		c0,0-0.8-8.7-6.2-8.7c5.5,0.1,6.3-8.6,6.3-8.6s0.8,8.7,6.2,8.7C150.8,196.3,149.9,204.9,149.9,204.9z"/>
	<path class="st0" d="M150,187.6c0,0-0.8,8.7-6.3,8.6c5.4,0,6.2,8.7,6.2,8.7s0.9-8.6,6.3-8.6C150.8,196.3,150,187.6,150,187.6z"/>
	<path class="st0" d="M230,187.6c0,0-0.8,8.7-6.3,8.6c5.4,0,6.2,8.7,6.2,8.7s0.9-8.6,6.3-8.6C230.8,196.3,230,187.6,230,187.6z"/>
</g>
</svg>
