<?xml version="1.0" encoding="utf-8"?>
<!-- Generator: Adobe Illustrator 20.1.0, SVG Export Plug-In . SVG Version: 6.00 Build 0)  -->
<svg version="1.1" id="레이어_1" xmlns="http://www.w3.org/2000/svg" xmlns:xlink="http://www.w3.org/1999/xlink" x="0px"
	 y="0px" viewBox="0 0 380 380" style="enable-background:new 0 0 380 380;" xml:space="preserve">
<style type="text/css">
	.st0{fill:#FFFFFF;stroke:#353535;stroke-width:6;stroke-linecap:round;stroke-linejoin:round;stroke-miterlimit:10;}
	.st1{fill:#FFFFFF;stroke:#353535;stroke-width:10;stroke-linecap:round;stroke-linejoin:round;stroke-miterlimit:10;}
	.st2{fill:#353535;}
	.st3{fill:none;stroke:#353535;stroke-width:6;stroke-linecap:round;stroke-linejoin:round;stroke-miterlimit:10;}
	.st4{fill:#FFFFFF;}
</style>
<path class="st0" d="M12.4,110c13.6-4,22.2,17.1,22.2,17.1s-4.3-22.3,9.3-26.4c-13.6,4-22.2-17.1-22.2-17.1S26,105.9,12.4,110z"/>
<path class="st0" d="M299.8,271.7c10.8,2.2,9,19.8,9,19.8s5.2-16.9,16.1-14.7c-10.8-2.2-9-19.8-9-19.8S310.6,274,299.8,271.7z"/>
<g>
	<path class="st1" d="M190,311.6c39.8-19.9,78.8-45.1,107.5-79.7c20.9-25.1,33.8-56.4,31.7-89.9c-2.5-39.7-30.2-73.7-71.9-73.7
		c-35.3,0-61,24-67.3,63.3c-6.3-39.3-40-63.3-70.3-63.3c-34.7,0-66.3,34-68.9,73.7c-2.1,33.4,10.9,64.8,31.7,89.9
		C111.2,266.5,150.2,291.7,190,311.6z"/>
	<path class="st2" d="M230,215L230,215c-5,0-9-4.1-9-9v-19.5c0-5,4.1-9,9-9h0c5,0,9,4.1,9,9V206C239,211,235,215,230,215z"/>
	<path class="st0" d="M212.2,215h-44.4c0,0,0.6,27.9,22.2,27.9S212.2,215,212.2,215z"/>
	<g>
		<path class="st3" d="M136.7,165.3c6.4-4.2,15.4-4.2,21.9,0"/>
		<path class="st3" d="M243.3,165.3c-6.4-4.2-15.4-4.2-21.9,0"/>
	</g>
	<path class="st2" d="M150,215L150,215c-5,0-9-4.1-9-9v-19.5c0-5,4.1-9,9-9h0c5,0,9,4.1,9,9V206C159,211,155,215,150,215z"/>
	<path class="st4" d="M143.7,196.2c5.4,0,6.2,8.7,6.2,8.7s0.9-8.6,6.3-8.6c-5.4,0-6.2-8.7-6.2-8.7S149.2,196.3,143.7,196.2z"/>
	<path class="st4" d="M223.7,196.2c5.4,0,6.2,8.7,6.2,8.7s0.9-8.6,6.3-8.6c-5.4,0-6.2-8.7-6.2-8.7S229.2,196.3,223.7,196.2z"/>
</g>
</svg>
