<?xml version="1.0" encoding="utf-8"?>
<!-- Generator: Adobe Illustrator 20.1.0, SVG Export Plug-In . SVG Version: 6.00 Build 0)  -->
<svg version="1.1" id="레이어_1" xmlns="http://www.w3.org/2000/svg" xmlns:xlink="http://www.w3.org/1999/xlink" x="0px"
	 y="0px" viewBox="0 0 380 380" style="enable-background:new 0 0 380 380;" xml:space="preserve">
<style type="text/css">
	.st0{fill:#FFFFFF;stroke:#353535;stroke-width:10;stroke-linecap:round;stroke-linejoin:round;stroke-miterlimit:10;}
	.st1{fill:#353535;}
	.st2{fill:none;stroke:#353535;stroke-width:6;stroke-linecap:round;stroke-linejoin:round;stroke-miterlimit:10;}
	.st3{fill:#FFFFFF;stroke:#353535;stroke-width:6;stroke-linecap:round;stroke-linejoin:round;stroke-miterlimit:10;}
</style>
<g>
	<path class="st0" d="M190,311.6c39.8-19.9,78.8-45.1,107.5-79.7c20.9-25.1,33.8-56.4,31.7-89.9c-2.5-39.7-30.2-73.7-71.9-73.7
		c-35.3,0-61,24-67.3,63.3c-6.3-39.3-40-63.3-70.3-63.3c-34.7,0-66.3,34-68.9,73.7c-2.1,33.4,10.9,64.8,31.7,89.9
		C111.2,266.5,150.2,291.7,190,311.6z"/>
	<g>
		<path class="st1" d="M150,212.9L150,212.9c-4.4,0-8-3.6-8-8v-17.3c0-4.4,3.6-8,8-8h0c4.4,0,8,3.6,8,8v17.3
			C158,209.3,154.4,212.9,150,212.9z"/>
		<path class="st1" d="M230,212.9L230,212.9c-4.4,0-8-3.6-8-8v-17.3c0-4.4,3.6-8,8-8h0c4.4,0,8,3.6,8,8v17.3
			C238,209.3,234.4,212.9,230,212.9z"/>
	</g>
	<path class="st2" d="M171.7,232.3c10.3-9.5,26.4-9.5,36.7,0"/>
	<g>
		<line class="st2" x1="157.9" y1="157.2" x2="131.7" y2="165.2"/>
		<line class="st2" x1="222.1" y1="157.2" x2="248.3" y2="165.2"/>
	</g>
	<path class="st3" d="M135,224.2c-2.6,2.3-5.2,4.9-6.5,8.2c-1.3,3.3-0.9,7.4,1.7,9.8c3.2,2.9,8.6,2,11.6-1.1c3-3.1,4.1-7.6,4.1-11.9
		c0-1.9,0.4-10.9-1.6-11.6C142.6,216.8,136.4,223,135,224.2z"/>
	<path class="st3" d="M110.9,261.3c-3.4,3-6.7,6.3-8.3,10.5c-1.6,4.2-1.2,9.5,2.2,12.5c4.1,3.7,11,2.6,14.9-1.3s5.2-9.7,5.2-15.2
		c0-2.4,0.5-13.9-2-14.9C120.5,251.9,112.6,259.8,110.9,261.3z"/>
	<path class="st3" d="M245.7,223.5c2.3,2,4.5,4.2,5.6,7.1s0.8,6.4-1.5,8.4c-2.7,2.5-7.4,1.7-10-0.9c-2.6-2.6-3.5-6.6-3.5-10.3
		c0-1.6-0.3-9.4,1.4-10.1C239.1,217.1,244.5,222.5,245.7,223.5z"/>
	<path class="st3" d="M267.9,254.6c3.9,2.3,7.7,4.9,10.1,8.7c2.4,3.8,2.9,9.1,0.2,12.7c-3.3,4.4-10.3,4.6-14.9,1.5
		c-4.5-3.1-6.9-8.6-8-14c-0.5-2.3-3.1-13.6-0.8-15C256.6,247.2,265.9,253.4,267.9,254.6z"/>
</g>
</svg>
