<?xml version="1.0" encoding="utf-8"?>
<!-- Generator: Adobe Illustrator 20.1.0, SVG Export Plug-In . SVG Version: 6.00 Build 0)  -->
<svg version="1.1" id="레이어_1" xmlns="http://www.w3.org/2000/svg" xmlns:xlink="http://www.w3.org/1999/xlink" x="0px"
	 y="0px" viewBox="0 0 380 320" style="enable-background:new 0 0 380 320;" xml:space="preserve">
<style type="text/css">
	.st0{fill:#FFFFFF;}
	.st1{fill:#353535;}
</style>
<g>
	<path class="st0" d="M190,311.6c39.8-19.9,78.8-45.1,107.5-79.7c20.9-25.1,33.8-56.4,31.7-89.9c-2.5-39.7-30.2-73.7-71.9-73.7
		c-35.3,0-61,24-67.3,63.3c-6.3-39.3-40-63.3-70.3-63.3c-34.7,0-66.3,34-68.9,73.7c-2.1,33.4,10.9,64.8,31.7,89.9
		C111.2,266.5,150.2,291.7,190,311.6z"/>
	<path class="st1" d="M190,314.1c-0.4,0-0.8-0.1-1.1-0.3c-47.9-24-83.3-50.2-108.3-80.3c-22.8-27.5-34.3-60.1-32.3-91.7
		c2.7-41.2,35.4-76,71.4-76c15.8,0,32.5,6.4,45.8,17.5c11.5,9.7,20,22.5,24.4,36.9c9.2-33.8,34.3-54.4,67.4-54.4
		c40.3,0,71.6,32,74.4,76c2,31.7-9.5,64.3-32.3,91.7c-25,30.1-60.4,56.4-108.3,80.3C190.8,314,190.4,314.1,190,314.1z M119.7,70.8
		c-33.5,0-63.9,32.7-66.4,71.4c-1.9,30.3,9.1,61.6,31.1,88.1c24.3,29.3,58.9,55,105.6,78.5c46.7-23.5,81.2-49.2,105.6-78.5
		c22-26.4,33-57.7,31.1-88.1c-2.2-35.5-26.8-71.4-69.4-71.4c-33.9,0-58.8,23.4-64.8,61.2c-0.2,1.2-1.2,2.1-2.5,2.1
		c-1.2,0-2.3-0.9-2.5-2.1C181.4,93.7,148.2,70.8,119.7,70.8z"/>
</g>
<g>
	<g>
		<path class="st1" d="M150,212.9L150,212.9c-4.4,0-8-3.6-8-8v-17.3c0-4.4,3.6-8,8-8l0,0c4.4,0,8,3.6,8,8v17.3
			C158,209.3,154.4,212.9,150,212.9z"/>
	</g>
	<g>
		<path class="st1" d="M230,212.9L230,212.9c-4.4,0-8-3.6-8-8v-17.3c0-4.4,3.6-8,8-8l0,0c4.4,0,8,3.6,8,8v17.3
			C238,209.3,234.4,212.9,230,212.9z"/>
	</g>
</g>
<g>
	<path class="st1" d="M171.7,234.8c-0.7,0-1.3-0.3-1.8-0.8c-0.9-1-0.9-2.6,0.1-3.5c11.2-10.4,28.8-10.4,40.1,0
		c1,0.9,1.1,2.5,0.1,3.5c-0.9,1-2.5,1.1-3.5,0.1c-9.3-8.6-24-8.6-33.3,0C172.9,234.6,172.3,234.8,171.7,234.8z"/>
</g>
<g>
	<g>
		<path class="st1" d="M131.7,167.7c-1.1,0-2.1-0.7-2.4-1.8c-0.4-1.3,0.3-2.7,1.7-3.1l26.2-8c1.3-0.4,2.7,0.3,3.1,1.7
			s-0.3,2.7-1.7,3.1l-26.2,8C132.2,167.7,131.9,167.7,131.7,167.7z"/>
	</g>
	<g>
		<path class="st1" d="M248.3,167.7c-0.2,0-0.5,0-0.7-0.1l-26.2-8c-1.3-0.4-2.1-1.8-1.7-3.1c0.4-1.3,1.8-2.1,3.1-1.7l26.2,8
			c1.3,0.4,2.1,1.8,1.7,3.1C250.4,167,249.4,167.7,248.3,167.7z"/>
	</g>
</g>
<g>
	<path class="st0" d="M135,224.2c-2.6,2.3-5.2,4.9-6.5,8.2s-0.9,7.4,1.7,9.8c3.2,2.9,8.6,2,11.6-1.1s4.1-7.6,4.1-11.9
		c0-1.9,0.4-10.9-1.6-11.6C142.6,216.8,136.4,223,135,224.2z"/>
	<path class="st1" d="M135,246.5c-2.3,0-4.6-0.7-6.5-2.4c-3.2-3-4.1-8-2.3-12.6c1.5-3.8,4.3-6.6,7.2-9.2c0,0,0,0,0,0
		c0.2-0.2,0.6-0.5,1-0.9c5.5-5.1,8.4-7.2,10.9-6.1c2.8,1.1,3.3,5.3,3.2,13.1c0,0.3,0,0.6,0,0.8c0,4-0.8,9.5-4.8,13.6
		C141.4,245.1,138.2,246.5,135,246.5z M136.6,226.1c-2.4,2.1-4.7,4.4-5.8,7.2c-1,2.6-0.6,5.5,1.1,7c2.2,2,6.1,1.1,8.1-1
		c2.2-2.3,3.4-5.9,3.4-10.2c0-0.2,0-0.5,0-0.9c0.1-4.3-0.1-6.5-0.3-7.7c-1.1,0.8-2.9,2.3-5.4,4.5
		C137.3,225.5,136.9,225.9,136.6,226.1z"/>
</g>
<g>
	<path class="st0" d="M110.9,261.3c-3.4,3-6.7,6.3-8.3,10.5c-1.6,4.2-1.2,9.5,2.2,12.5c4.1,3.7,11,2.6,14.9-1.3s5.2-9.7,5.2-15.2
		c0-2.4,0.5-13.9-2-14.9C120.5,251.9,112.6,259.8,110.9,261.3z"/>
	<path class="st1" d="M111,289.1c-2.8,0-5.6-0.9-7.9-2.9c-4.5-3.9-4.7-10.5-2.9-15.2c1.8-4.7,5.4-8.3,9-11.5c0,0,0,0,0,0
		c0.2-0.2,0.6-0.5,1-0.9c6.7-6.2,10.6-9.2,13.6-7.9c2.8,1.1,3.7,5.2,3.6,16.1c0,0.4,0,0.8,0,1.1c0,5-1,12.1-5.9,17
		C118.8,287.4,114.9,289.1,111,289.1z M112.6,263.2c-3.1,2.8-6.2,5.8-7.6,9.5c-1.2,3-1.2,7.4,1.5,9.7c3.2,2.9,8.6,1.7,11.5-1.2
		c3.7-3.7,4.5-9.3,4.5-13.4c0-0.3,0-0.7,0-1.1c0.1-6.9-0.3-9.9-0.6-11.1c-1.2,0.6-3.5,2.3-8.1,6.6
		C113.2,262.6,112.8,263,112.6,263.2L112.6,263.2z"/>
</g>
<g>
	<path class="st0" d="M245.7,223.5c2.3,2,4.5,4.2,5.6,7.1s0.8,6.4-1.5,8.4c-2.7,2.5-7.4,1.7-10-0.9c-2.6-2.6-3.5-6.6-3.5-10.3
		c0-1.6-0.3-9.4,1.4-10.1C239.1,217.1,244.5,222.5,245.7,223.5z"/>
	<path class="st1" d="M245.7,243c-2.8,0-5.7-1.2-7.7-3.2c-2.7-2.7-4.2-7-4.2-12.1l0-0.6c-0.1-7,0.3-10.7,3-11.8
		c2.2-1,4.6,0.8,9.6,5.3c0.4,0.4,0.8,0.7,1,0.9c0,0,0,0,0,0c2.5,2.2,5,4.7,6.3,8.1c1.6,4.2,0.7,8.7-2.2,11.2
		C249.8,242.4,247.8,243,245.7,243z M239,221c-0.1,1.1-0.2,3-0.2,6.1l0,0.7c0,2.2,0.4,6.1,2.8,8.5c1.7,1.7,4.9,2.4,6.5,0.8
		c1.6-1.4,1.5-3.9,0.9-5.7c-0.9-2.4-2.9-4.3-4.9-6.1c-0.2-0.2-0.6-0.6-1.1-1C242.2,223.7,240.4,222,239,221z"/>
</g>
<g>
	<path class="st0" d="M267.9,254.6c3.9,2.3,7.7,4.9,10.1,8.7c2.4,3.8,2.9,9.1,0.2,12.7c-3.3,4.4-10.3,4.6-14.9,1.5
		c-4.5-3.1-6.9-8.6-8-14c-0.5-2.3-3.1-13.6-0.8-15C256.6,247.2,265.9,253.4,267.9,254.6z"/>
	<path class="st1" d="M270.3,282.1c-3,0-6-0.9-8.4-2.5c-5.7-3.9-8-10.6-9.1-15.6l-0.1-0.3c-2.8-12.5-1.9-15.9,0.4-17.3
		c2.4-1.5,6-0.1,15,5.5c0.4,0.3,0.8,0.5,1,0.6c4.1,2.4,8.2,5.2,10.9,9.5c3.2,5,3.2,11.4,0.1,15.5
		C277.8,280.7,274.1,282.1,270.3,282.1z M256.1,251c-0.1,1.3,0,4.4,1.6,11.6l0.1,0.3c0.8,4.1,2.7,9.5,7,12.5
		c3.4,2.3,8.9,2.5,11.5-0.9c2.1-2.8,1.4-7.1-0.3-9.9c-2.1-3.4-5.7-5.8-9.3-7.9c0,0,0,0,0,0c-0.3-0.2-0.6-0.4-1.1-0.7
		C260,252.6,257.3,251.4,256.1,251z"/>
</g>
</svg>
