<?xml version="1.0" encoding="utf-8"?>
<!-- Generator: Adobe Illustrator 20.1.0, SVG Export Plug-In . SVG Version: 6.00 Build 0)  -->
<svg version="1.1" id="레이어_1" xmlns="http://www.w3.org/2000/svg" xmlns:xlink="http://www.w3.org/1999/xlink" x="0px"
	 y="0px" viewBox="0 0 380 380" style="enable-background:new 0 0 380 380;" xml:space="preserve">
<style type="text/css">
	.st0{fill:#FFFFFF;stroke:#353535;stroke-width:10;stroke-linecap:round;stroke-linejoin:round;stroke-miterlimit:10;}
	.st1{fill:none;stroke:#353535;stroke-width:6;stroke-miterlimit:10;}
	.st2{fill:none;stroke:#353535;stroke-width:7;stroke-linecap:round;stroke-linejoin:round;stroke-miterlimit:10;}
	.st3{fill:none;stroke:#353535;stroke-width:6;stroke-linecap:round;stroke-linejoin:round;stroke-miterlimit:10;}
</style>
<g>
	<path class="st0" d="M190,311.6c39.8-19.9,78.8-45.1,107.5-79.7c20.9-25.1,33.8-56.4,31.7-89.9c-2.5-39.7-30.2-73.7-71.9-73.7
		c-35.3,0-61,24-67.3,63.3c-6.3-39.3-40-63.3-70.3-63.3c-34.7,0-66.3,34-68.9,73.7c-2.1,33.4,10.9,64.8,31.7,89.9
		C111.2,266.5,150.2,291.7,190,311.6z"/>
	<path class="st1" d="M150,212.9L150,212.9c-4.4,0-8-3.6-8-8v-17.3c0-4.4,3.6-8,8-8h0c4.4,0,8,3.6,8,8v17.3
		C158,209.3,154.4,212.9,150,212.9z"/>
	<path class="st1" d="M230,212.9L230,212.9c-4.4,0-8-3.6-8-8v-17.3c0-4.4,3.6-8,8-8h0c4.4,0,8,3.6,8,8v17.3
		C238,209.3,234.4,212.9,230,212.9z"/>
	<line class="st2" x1="139" y1="157.9" x2="159.7" y2="157.9"/>
	<line class="st2" x1="241" y1="157.9" x2="220.3" y2="157.9"/>
	<path class="st1" d="M196.3,256.5h-12.6c-3.2,0-5.9-2.6-5.9-5.9v-38.9c0-3.2,2.6-5.9,5.9-5.9h12.6c3.2,0,5.9,2.6,5.9,5.9v38.9
		C202.1,253.9,199.5,256.5,196.3,256.5z"/>
</g>
<path class="st3" d="M281.5,32.1c1.1,9.3,10,15.7,18.5,16c8.6,0.4,16.7-3.9,24-8.8c-4.7,7.7-4.4,18.6,0.8,25.9s14.9,10.4,22.8,7.2
	c-5.9,4-8.8,12.3-7,19.6c1.9,7.2,8.4,12.7,15.3,12.7"/>
</svg>
