<?xml version="1.0" encoding="utf-8"?>
<!-- Generator: Adobe Illustrator 20.1.0, SVG Export Plug-In . SVG Version: 6.00 Build 0)  -->
<svg version="1.1" id="레이어_1" xmlns="http://www.w3.org/2000/svg" xmlns:xlink="http://www.w3.org/1999/xlink" x="0px"
	 y="0px" viewBox="0 0 380 320" style="enable-background:new 0 0 380 320;" xml:space="preserve">
<style type="text/css">
	.st0{fill:#FFFFFF;}
	.st1{fill:#353535;}
</style>
<g>
	<g>
		<path class="st0" d="M190,311.6c39.8-19.9,78.8-45.1,107.5-79.7c20.9-25.1,33.8-56.4,31.7-89.9c-2.5-39.7-30.2-73.7-71.9-73.7
			c-35.3,0-61,24-67.3,63.3c-6.3-39.3-40-63.3-70.3-63.3c-34.7,0-66.3,34-68.9,73.7c-2.1,33.4,10.9,64.8,31.7,89.9
			C111.2,266.5,150.2,291.7,190,311.6z"/>
		<path class="st1" d="M190,314.1c-0.4,0-0.8-0.1-1.1-0.3c-47.9-24-83.3-50.2-108.3-80.3c-22.8-27.5-34.3-60.1-32.3-91.7
			c2.7-41.2,35.4-76,71.4-76c15.8,0,32.5,6.4,45.8,17.5c11.5,9.7,20,22.5,24.4,36.9c9.2-33.8,34.3-54.4,67.4-54.4
			c40.3,0,71.6,32,74.4,76c2,31.7-9.5,64.3-32.3,91.7c-25,30.1-60.4,56.4-108.3,80.3C190.8,314,190.4,314.1,190,314.1z M119.7,70.8
			c-33.5,0-63.9,32.7-66.4,71.4c-1.9,30.3,9.1,61.6,31.1,88.1c24.3,29.3,58.9,55,105.6,78.5c46.7-23.5,81.2-49.2,105.6-78.5
			c22-26.4,33-57.7,31.1-88.1c-2.2-35.5-26.8-71.4-69.4-71.4c-33.9,0-58.8,23.4-64.8,61.2c-0.2,1.2-1.2,2.1-2.5,2.1
			c-1.2,0-2.3-0.9-2.5-2.1C181.4,93.7,148.2,70.8,119.7,70.8z"/>
	</g>
	<g>
		<path class="st1" d="M150,215.4c-5.8,0-10.5-4.7-10.5-10.5v-17.3c0-5.8,4.7-10.5,10.5-10.5s10.5,4.7,10.5,10.5v17.3
			C160.5,210.7,155.8,215.4,150,215.4z M150,182.1c-3,0-5.5,2.5-5.5,5.5v17.3c0,3,2.5,5.5,5.5,5.5s5.5-2.5,5.5-5.5v-17.3
			C155.5,184.6,153,182.1,150,182.1z"/>
	</g>
	<g>
		<path class="st1" d="M230,215.4c-5.8,0-10.5-4.7-10.5-10.5v-17.3c0-5.8,4.7-10.5,10.5-10.5s10.5,4.7,10.5,10.5v17.3
			C240.5,210.7,235.8,215.4,230,215.4z M230,182.1c-3,0-5.5,2.5-5.5,5.5v17.3c0,3,2.5,5.5,5.5,5.5s5.5-2.5,5.5-5.5v-17.3
			C235.5,184.6,233,182.1,230,182.1z"/>
	</g>
	<g>
		<path class="st1" d="M159.7,160.4H139c-1.4,0-2.5-1.1-2.5-2.5s1.1-2.5,2.5-2.5h20.7c1.4,0,2.5,1.1,2.5,2.5
			S161.1,160.4,159.7,160.4z"/>
	</g>
	<g>
		<path class="st1" d="M241,160.4h-20.7c-1.4,0-2.5-1.1-2.5-2.5s1.1-2.5,2.5-2.5H241c1.4,0,2.5,1.1,2.5,2.5S242.4,160.4,241,160.4z"
			/>
	</g>
	<g>
		<path class="st1" d="M196.3,259h-12.6c-4.6,0-8.4-3.8-8.4-8.4v-38.9c0-4.6,3.8-8.4,8.4-8.4h12.6c4.6,0,8.4,3.8,8.4,8.4v38.9
			C204.6,255.3,200.9,259,196.3,259z M183.7,208.3c-1.9,0-3.4,1.5-3.4,3.4v38.9c0,1.9,1.5,3.4,3.4,3.4h12.6c1.8,0,3.3-1.5,3.4-3.5
			l0-38.8c0-1.9-1.5-3.4-3.4-3.4H183.7z"/>
	</g>
</g>
<g>
	<path class="st1" d="M355.9,106.5c-7.6,0-14.9-6-17-14c-1.5-5.9-0.1-12.3,3.2-17.1c-7.1,0.4-14.3-3-18.8-9.2
		c-4.4-6.2-5.6-14.9-3.3-22.4c-5.8,3.4-12.8,6.4-20.2,6c-8.9-0.3-18.9-7-20.2-17.5c-0.1-1,0.6-1.8,1.5-1.9c1-0.1,1.8,0.6,1.9,1.5
		c1,8.6,9.5,14.2,16.8,14.5c8.5,0.4,16.8-4.3,23-8.5c0.7-0.5,1.6-0.4,2.2,0.2c0.6,0.6,0.7,1.5,0.3,2.2c-4.4,7.2-4.1,17.2,0.7,24
		c4.7,6.6,13.6,9.5,20.7,6.6c0.8-0.3,1.8,0,2.2,0.8c0.4,0.8,0.2,1.8-0.6,2.3c-5.3,3.6-7.9,11-6.3,17.7c1.7,6.5,7.6,11.4,13.6,11.4
		c1,0,1.8,0.8,1.8,1.8S356.9,106.5,355.9,106.5z"/>
</g>
</svg>
